<?xml version="1.0" encoding="UTF-8" standalone="no"?>
<!DOCTYPE svg PUBLIC "-//W3C//DTD SVG 1.1//EN" "http://www.w3.org/Graphics/SVG/1.1/DTD/svg11.dtd">
<svg width="100%" height="100%" viewBox="0 0 228 241" version="1.1" xmlns="http://www.w3.org/2000/svg" xmlns:xlink="http://www.w3.org/1999/xlink" xml:space="preserve" xmlns:serif="http://www.serif.com/" style="fill-rule:evenodd;clip-rule:evenodd;stroke-linejoin:round;stroke-miterlimit:1.41421;">
    <g transform="matrix(1,0,0,1,-501.906,-339.353)">
        <g transform="matrix(1,0,0,1,566.471,545.7)">
            <g id="Layer-1" serif:id="Layer 1">
                <path d="M0,-173.571C0,-173.571 25.421,-201.149 77.573,-199.495C129.725,-197.842 163.364,-154.148 163.306,-116.229C163.248,-77.772 112.653,-80.812 110.51,-105.779C109.264,-118.404 100.961,-139.563 68.612,-139.475C16.294,-139.334 -0.772,-93.411 0.287,-59.483L0.396,-3.554C0.396,48.119 -64.563,45.164 -64.563,-3.554L-64.563,-24.223L-64.563,-80.325L-64.563,-167.429C-64.993,-221.69 -0.417,-214.903 0,-173.571" style="fill:rgb(239,98,72);fill-rule:nonzero;"/>
            </g>
        </g>
    </g>
</svg>
